<?xml version="1.0" encoding="UTF-8" standalone="no"?><!-- Generator: Gravit.io --><svg xmlns="http://www.w3.org/2000/svg" xmlns:xlink="http://www.w3.org/1999/xlink" style="isolation:isolate" viewBox="-264.5 -2692 3086.126 4425" width="3086.126pt" height="4425pt"><defs><clipPath id="_clipPath_ilxsQsT72UYzOrk9uiLp3WJnU0Njvr9F"><rect x="-264.5" y="-2692" width="3086.126" height="4425"/></clipPath></defs><g clip-path="url(#_clipPath_ilxsQsT72UYzOrk9uiLp3WJnU0Njvr9F)"><path d=" M 1053 -2692 C 1245.888 -2588.089 1404.564 -2436.079 1529 -2236 C 1654.384 -2019.626 1728.727 -1783.95 1752 -1529 C 1762.987 -1394.11 1766.341 -1269.757 1762 -1156 C 1859.214 -1427.592 2049.224 -1616.916 2332 -1724 C 2268.04 -1527.197 2255.717 -1309.52 2295 -1071 C 2335.675 -868.933 2412.019 -685.59 2524 -521 C 2658.567 -334.299 2745.91 -143.289 2786 52 C 2847.418 361.842 2829.428 626.852 2732 847 C 2654.475 1040.167 2537.818 1204.177 2382 1339 C 2130.821 1556.518 1806.498 1687.861 1409 1733 C 1591.821 1613.996 1686.164 1445.339 1692 1227 C 1685.543 1017.621 1582.219 775.964 1382 502 C 1718.836 621.198 1940.513 874.542 2047 1262 C 2156.162 1013.626 2133.838 775.303 1980 547 C 1854.804 383.44 1725.147 242.45 1591 124 C 1410.47 -38.481 1267.48 -226.138 1162 -439 C 1076.359 -646.43 1062.369 -857.086 1120 -1071 C 1134.653 -1140.127 1161.997 -1226.117 1202 -1329 C 1071.188 -1233.145 952.198 -1093.802 845 -911 C 755.022 -758.868 711.699 -552.192 715 -291 C 730.352 -105.799 773.695 83.211 845 276 L 1018 606 L 1283 1002 C 1378.394 1202.364 1378.404 1369.04 1283 1502 C 1159.04 1634.465 976.384 1679.141 735 1636 C 528.29 1583.524 344.966 1468.534 185 1291 C 44.756 1135.23 -71.568 943.907 -164 717 C -229.479 543.693 -262.969 363.369 -264.5 176 C -258.222 -120.071 -200.712 -365.727 -92 -561 C -26.221 -43.212 143.789 284.798 394 423 C 223.22 3.205 166.564 -384.118 248 -739 C 283.433 -899.355 342.776 -1046.012 426 -1179 C 488.832 -1299.924 575.175 -1431.581 685 -1574 L 948 -1962 C 1099.571 -2219.709 1134.581 -2463.033 1053 -2692 Z  M 2020 -903 C 1926.3 -719.074 1885.977 -521.397 1899 -310 C 1931.589 -149.128 1999.599 -9.452 2103 109 C 2227.121 231.424 2311.131 356.101 2355 483 C 2386.303 567.03 2395.313 658.707 2382 758 C 2433.939 649.697 2466.616 533.707 2480 410 C 2495.293 276.863 2474.636 137.54 2418 -8 C 2387.252 -93.999 2319.262 -212.989 2214 -365 C 2118.123 -498.897 2053.466 -678.221 2020 -903 Z " fill-rule="evenodd" fill="rgb(255,167,18)"/></g></svg>